<?xml version="1.0" standalone="no"?>
<!DOCTYPE svg PUBLIC "-//W3C//DTD SVG 20010904//EN"
 "http://www.w3.org/TR/2001/REC-SVG-20010904/DTD/svg10.dtd">
<svg version="1.0" xmlns="http://www.w3.org/2000/svg"
 width="300.000000pt" height="300.000000pt" viewBox="0 0 300.000000 300.000000"
 preserveAspectRatio="xMidYMid meet">
<metadata>
Created by potrace 1.10, written by Peter Selinger 2001-2011
</metadata>
<g transform="translate(0.000000,300.000000) scale(0.100000,-0.100000)"
fill="#000000" stroke="none">
<path d="M1192 2414 c-35 -17 -63 -41 -83 -70 -43 -63 -92 -57 -58 8 17 32 4
32 -33 0 -29 -27 -33 -36 -33 -80 0 -34 6 -56 18 -70 17 -19 17 -22 2 -52 -12
-22 -16 -50 -13 -90 1 -32 0 -62 -5 -66 -12 -12 -8 -51 7 -63 15 -12 21 -48
32 -170 8 -84 -4 -89 -36 -17 -15 32 -20 37 -26 23 -17 -46 23 -174 70 -216
14 -14 26 -33 26 -43 0 -10 9 -37 21 -60 19 -36 19 -42 5 -50 -43 -24 -105
-79 -136 -121 -32 -44 -77 -66 -64 -33 4 12 -17 70 -43 117 -2 4 10 12 27 19
42 17 88 73 96 115 5 29 -5 68 -56 208 -34 95 -69 180 -78 191 -66 74 -211 55
-321 -41 -55 -48 -81 -92 -81 -140 0 -15 23 -95 52 -178 59 -165 88 -207 152
-219 35 -7 36 -8 36 -50 0 -35 6 -51 30 -76 23 -25 28 -36 20 -50 -25 -46 -3
-120 45 -158 14 -11 25 -29 25 -41 0 -13 10 -26 25 -33 14 -6 25 -18 25 -25 0
-8 -4 -12 -9 -9 -20 13 -30 -20 -19 -64 9 -33 9 -45 0 -48 -27 -9 -55 -40 -49
-54 12 -32 251 -115 413 -143 l80 -14 77 -78 76 -78 77 77 c73 73 81 78 138
88 171 30 446 127 446 157 0 7 -16 23 -35 34 -34 21 -38 36 -20 95 2 6 -1 17
-5 25 -7 11 -15 10 -46 -4 -30 -15 -39 -16 -45 -5 -13 19 -12 21 21 40 39 22
46 55 31 147 -13 85 -53 180 -102 241 -24 30 -106 94 -147 116 -2 1 6 19 17
40 12 21 21 48 21 60 0 11 9 29 20 39 50 45 91 165 75 217 -6 18 -9 16 -25
-20 -35 -78 -44 -65 -36 58 6 99 10 115 29 130 20 16 21 21 9 52 -6 19 -12 56
-12 82 0 26 -7 60 -14 75 -16 30 -56 61 -80 61 -8 0 -24 20 -36 45 -27 56 -67
87 -145 113 -33 11 -89 34 -125 51 -85 41 -154 42 -228 5z m225 -52 c32 -16
82 -37 112 -47 29 -9 67 -30 84 -45 l31 -27 -80 4 c-55 3 -97 12 -138 30 -82
36 -141 30 -221 -22 -72 -46 -122 -52 -157 -17 l-22 22 36 0 c31 0 42 7 79 51
79 95 159 109 276 51z m-28 -105 c10 -9 -3 -14 -55 -23 -38 -7 -82 -13 -99
-13 l-30 0 24 17 c53 37 126 46 160 19z m271 -42 c7 -9 11 -18 8 -21 -8 -8
-58 18 -52 27 8 14 30 10 44 -6z m-106 -30 c103 -22 128 -45 150 -137 5 -22 3
-25 -13 -21 -11 3 -22 15 -25 27 -13 51 -126 64 -126 15 0 -10 6 -19 13 -19 6
-1 -4 -10 -25 -20 -20 -11 -44 -30 -55 -43 -21 -27 -51 -48 -38 -27 6 10 -1
12 -33 8 -36 -5 -43 -3 -57 18 -9 14 -32 32 -51 41 -23 12 -30 19 -22 25 22
13 -5 43 -41 46 -36 4 -81 -20 -81 -43 0 -8 -10 -19 -21 -26 -21 -11 -22 -10
-15 22 13 66 39 103 80 117 101 33 252 40 360 17z m-457 -55 c-14 -16 -28 -47
-32 -70 -10 -57 -29 -52 -22 6 3 29 1 41 -4 33 -7 -11 -9 -10 -9 5 0 29 30 56
62 56 l30 0 -25 -30z m666 3 c11 -13 14 -31 10 -65 -6 -54 -18 -55 -27 -4 -4
19 -16 46 -27 60 l-20 26 24 0 c13 0 31 -8 40 -17z m-493 -148 c44 -23 60 -53
60 -113 0 -50 -3 -58 -39 -93 -35 -35 -44 -39 -89 -39 -43 0 -57 5 -87 31 -48
43 -62 97 -38 147 35 72 124 103 193 67z m404 1 c18 -7 43 -26 55 -42 19 -24
22 -38 19 -83 -4 -47 -10 -59 -41 -88 -31 -28 -44 -33 -87 -33 -41 0 -55 5
-85 31 -62 55 -68 146 -12 196 39 36 94 43 151 19z m-945 -102 c19 -14 25 -14
32 -3 7 11 12 10 29 -7 l21 -21 -81 -11 c-85 -12 -170 -51 -170 -78 0 -19 11
-18 61 10 50 27 103 41 120 30 14 -8 -8 -24 -36 -24 -28 0 -125 -51 -125 -65
0 -23 12 -22 64 6 53 29 114 42 116 25 1 -6 -19 -15 -43 -21 -46 -12 -117 -51
-117 -65 0 -20 22 -20 51 1 34 24 117 52 130 43 17 -10 9 -24 -13 -24 -35 0
-150 -58 -146 -72 6 -18 14 -16 78 15 64 31 101 37 107 20 3 -8 -5 -13 -20
-13 -13 0 -51 -14 -83 -31 -72 -38 -68 -35 -60 -54 5 -13 12 -12 48 11 46 30
122 56 132 47 12 -12 6 -23 -11 -23 -23 0 -138 -55 -148 -70 -4 -6 -3 -16 3
-22 6 -6 26 1 57 21 36 23 154 61 189 61 10 0 18 -69 10 -82 -6 -9 -10 -4 -14
17 -7 38 -26 34 -22 -6 2 -28 -24 -96 -34 -87 -2 3 1 19 7 37 13 36 4 84 -14
78 -7 -2 -11 -17 -9 -35 3 -33 -22 -92 -39 -92 -6 0 -6 6 1 19 16 31 13 91 -5
91 -10 0 -15 -11 -15 -35 0 -19 -5 -45 -11 -59 -24 -52 -130 -75 -169 -36 -27
27 -25 35 15 60 19 12 35 28 35 36 0 21 -17 17 -56 -12 -28 -22 -34 -23 -34
-10 0 9 16 26 35 37 34 20 48 49 23 49 -6 0 -26 -11 -44 -25 -26 -20 -33 -22
-38 -10 -3 9 9 22 34 36 38 22 48 38 33 52 -3 4 -22 -5 -40 -19 -22 -17 -38
-23 -44 -17 -6 6 5 20 31 37 22 14 40 30 40 36 0 20 -19 18 -51 -6 -23 -17
-35 -21 -38 -12 -2 6 5 18 15 25 54 35 59 41 47 54 -9 9 -20 6 -48 -15 -26
-21 -35 -23 -35 -12 0 9 16 26 35 38 19 13 35 26 35 30 0 19 -25 18 -51 -1
-34 -26 -38 -11 -10 36 46 75 156 134 188 102 6 -6 17 -8 24 -4 9 6 7 11 -6
22 -28 20 5 17 34 -3z m713 -37 c4 -28 17 -63 33 -83 24 -31 24 -34 7 -34 -11
0 -31 -9 -46 -21 l-26 -20 -26 20 c-15 12 -35 21 -45 21 -11 0 -19 5 -19 10 0
6 4 10 9 10 15 0 51 84 51 119 0 29 3 32 27 29 25 -3 29 -8 35 -51z m-592 -87
c0 -5 -7 -10 -15 -10 -8 0 -18 0 -22 -1 -4 0 -9 4 -11 10 -2 6 8 11 22 11 14
0 26 -4 26 -10z m301 -64 l42 -13 -35 -21 c-20 -12 -47 -22 -62 -22 -25 0 -26
3 -26 52 0 50 1 51 19 34 11 -10 38 -23 62 -30z m599 -6 c0 -48 -1 -50 -27
-50 -16 0 -44 10 -63 21 l-34 21 37 13 c21 7 47 20 60 28 12 9 23 16 25 16 1
1 2 -21 2 -49z m-395 -10 c18 -20 18 -21 -5 -45 -36 -38 -137 -85 -183 -85
-42 0 -98 22 -119 47 -11 14 -8 15 29 9 47 -9 77 4 142 58 51 43 106 49 136
16z m251 -21 c58 -50 87 -62 136 -54 21 4 38 4 38 1 0 -3 -20 -17 -43 -31 -77
-45 -164 -28 -253 49 -39 34 -39 34 -20 55 33 36 86 29 142 -20z m-722 2 c7
-11 -22 -23 -35 -15 -5 3 -9 9 -9 15 0 12 37 12 44 0z m556 -20 c0 -17 62 -68
110 -91 28 -13 50 -26 50 -29 0 -3 -15 -16 -34 -28 -34 -22 -34 -22 -71 -3
-21 11 -42 17 -46 14 -5 -3 -9 0 -9 6 0 6 -6 8 -12 4 -7 -4 -3 4 10 18 26 29
27 36 5 60 -21 24 -46 23 -69 -3 -17 -19 -18 -22 -2 -50 17 -29 17 -29 -10
-35 -15 -4 -37 -13 -49 -20 -21 -13 -27 -12 -64 15 l-41 30 28 7 c43 11 96 44
129 81 27 30 75 46 75 24z m-15 -71 c18 -20 17 -20 -14 -20 -29 0 -30 2 -19
20 7 11 13 20 14 20 0 0 9 -9 19 -20z m-227 -90 c32 0 39 -4 51 -31 7 -16 31
-42 54 -57 34 -23 52 -27 107 -27 55 0 73 4 107 27 23 15 47 41 54 57 12 27
19 31 51 31 20 0 48 4 62 10 35 13 34 -4 -3 -53 -84 -110 -232 -153 -378 -109
-75 23 -151 80 -178 133 -20 38 -19 40 11 29 14 -6 42 -10 62 -10z m286 -20
c14 -5 26 -14 26 -19 0 -14 -61 -36 -100 -36 -39 0 -100 22 -100 37 0 25 123
38 174 18z m-329 -220 c25 -49 85 -120 100 -120 8 0 22 11 33 24 17 22 21 23
34 10 12 -13 13 -24 2 -76 -7 -34 -21 -121 -30 -193 -10 -71 -18 -131 -19
-133 -2 -3 -175 33 -220 46 -29 8 -30 11 -33 73 -2 35 4 113 13 173 8 60 14
111 12 113 -3 2 -10 -11 -17 -29 -7 -18 -18 -47 -26 -63 -7 -17 -16 -55 -20
-85 l-7 -55 -14 33 c-12 31 -12 38 7 76 24 51 26 118 4 156 -16 27 -16 29 11
64 16 21 53 55 84 77 l56 40 6 -48 c4 -27 14 -64 24 -83z m646 52 c72 -65 121
-169 127 -272 l4 -79 -37 -15 c-21 -9 -40 -14 -42 -12 -2 2 -8 32 -13 67 -5
35 -19 89 -30 119 -11 30 -20 56 -20 57 0 2 -4 3 -8 3 -5 0 -1 -60 9 -132 10
-73 19 -152 19 -175 l0 -42 -53 -16 c-73 -21 -200 -45 -209 -39 -4 3 -8 20 -8
39 0 18 -12 102 -26 185 -23 139 -24 154 -10 169 15 14 17 13 32 -7 22 -32 38
-28 78 20 49 57 76 116 76 167 l0 42 31 -18 c17 -10 53 -37 80 -61z m-1018 24
c28 -81 -11 -147 -57 -100 -25 24 -19 44 14 51 17 3 30 11 30 19 0 21 -15 25
-36 9 -27 -21 -36 -18 -29 8 7 22 40 57 55 57 5 0 15 -20 23 -44z m44 -2 c27
-46 30 -89 7 -98 -13 -5 -14 -1 -9 22 4 19 -2 43 -19 75 -28 57 -11 58 21 1z
m479 -34 c13 0 24 -3 24 -6 0 -4 -16 -28 -36 -55 l-37 -47 -22 26 c-27 33 -65
106 -65 126 0 11 13 8 56 -15 31 -16 67 -29 80 -29z m344 31 c-10 -36 -27 -68
-58 -108 l-24 -32 -39 49 c-21 27 -39 52 -39 55 0 3 10 5 23 5 13 0 48 13 78
29 69 36 69 36 59 2z m-182 -82 c20 -24 22 -32 11 -45 -11 -13 -18 -9 -56 28
-23 23 -43 45 -43 48 0 3 15 4 33 2 20 -3 41 -15 55 -33z m-76 -39 c32 -29 32
-30 9 -30 -27 0 -61 26 -61 47 0 21 16 16 52 -17z m-474 -27 c-2 -11 -24 -25
-56 -37 -66 -23 -61 -33 6 -12 41 12 53 12 61 2 14 -17 0 -29 -54 -46 -22 -7
-44 -16 -49 -21 -13 -12 -10 -11 48 6 54 17 79 8 56 -20 -21 -26 -84 -40 -118
-26 -43 18 -64 77 -46 126 10 24 61 44 112 45 36 0 43 -3 40 -17z m552 -190
c31 -196 33 -223 14 -223 -9 0 -12 5 -8 13 4 6 -2 4 -13 -6 -16 -14 -32 -17
-64 -13 -24 3 -52 5 -61 5 -15 1 -17 8 -13 39 17 122 26 184 35 242 5 36 10
71 10 78 0 7 14 12 38 12 l38 0 24 -147z m-525 -121 c32 -110 32 -112 11 -106
-29 9 -29 8 -59 112 -28 94 -28 116 0 110 11 -2 26 -40 48 -116z m1009 -32
c13 0 16 -5 12 -16 -4 -9 3 -32 13 -50 l20 -34 -36 -15 c-19 -8 -41 -15 -47
-15 -14 0 -36 34 -47 74 -11 37 14 70 46 62 11 -3 28 -6 39 -6z m-1073 -38 c9
-31 8 -44 -3 -66 -12 -24 -15 -25 -33 -12 -20 14 -20 15 -2 46 11 17 17 40 14
51 -10 36 12 19 24 -19z m959 -27 c0 -8 -6 -15 -14 -15 -8 0 -18 -5 -22 -11
-4 -8 0 -9 15 -4 26 8 28 -10 4 -25 -14 -9 -11 -10 15 -5 43 9 44 -19 1 -34
-46 -16 -46 -16 -63 36 -20 57 -20 52 7 63 34 14 57 12 57 -5z m-766 -9 c42
-18 53 -48 31 -83 -15 -23 -21 -25 -58 -19 -23 4 -42 8 -44 9 -3 4 30 107 34
107 2 0 19 -6 37 -14z m656 -32 c-13 -23 -12 -27 15 -48 25 -20 26 -23 10 -30
-11 -4 -25 0 -35 9 -23 21 -33 19 -25 -5 5 -15 2 -20 -13 -20 -14 0 -21 9 -25
33 -3 17 -8 39 -12 48 -4 10 0 19 10 23 10 4 19 -2 25 -17 5 -12 9 -16 9 -9 1
16 41 55 49 48 3 -3 -1 -18 -8 -32z m-789 -11 c9 -7 19 -10 23 -6 4 4 4 0 1
-10 -6 -14 -9 -15 -21 -2 -8 7 -23 17 -34 20 -11 3 -20 10 -20 15 0 11 29 2
51 -17z m267 -34 c16 -70 16 -74 -14 -54 -17 11 -35 14 -55 10 -36 -8 -36 -3
-1 51 37 59 56 57 70 -7z m193 41 c23 -13 25 -43 4 -60 -18 -15 -17 -15 -32
27 -14 42 -7 51 28 33z m-91 -10 c60 -32 39 -100 -30 -100 -44 0 -45 3 -34 73
7 39 26 47 64 27z m302 -7 c38 -34 12 -93 -41 -93 -36 0 -51 17 -51 57 0 49
54 71 92 36z m-119 -30 c6 -54 -7 -75 -46 -71 -20 2 -32 8 -32 18 0 10 8 14
23 13 19 -2 22 2 22 37 0 53 26 55 33 3z m-36 -155 c-23 -20 -44 -37 -47 -37
-5 0 -80 67 -80 72 0 1 38 2 85 2 l84 0 -42 -37z"/>
<path d="M1220 2348 c-25 -14 -45 -29 -45 -35 0 -6 -13 -21 -28 -33 -48 -38
-20 -35 44 5 33 20 78 39 99 42 22 3 37 10 34 14 -5 9 38 -6 132 -46 41 -17
109 -21 84 -5 -8 5 -24 10 -35 10 -11 0 -49 14 -85 31 -91 43 -143 47 -200 17z
m55 -7 c-22 -4 -50 -13 -62 -19 -13 -7 -23 -10 -23 -8 0 13 58 35 90 34 l35
-1 -40 -6z"/>
<path d="M1211 2147 c-19 -7 -36 -18 -39 -26 -3 -10 1 -11 19 -5 13 5 45 9 72
8 50 -1 60 8 28 26 -24 12 -37 12 -80 -3z"/>
<path d="M1528 2153 c-10 -2 -18 -10 -18 -17 0 -9 14 -13 43 -12 23 0 52 -3
65 -7 37 -14 26 12 -13 29 -35 14 -46 15 -77 7z"/>
<path d="M1163 1875 c-22 -16 -39 -67 -28 -85 5 -8 14 -6 31 4 30 20 63 20 91
1 20 -14 22 -14 28 4 7 24 -18 76 -40 85 -28 10 -59 7 -82 -9z m71 -28 c15
-11 12 -12 -23 -12 -31 0 -37 2 -29 12 6 7 16 13 22 13 7 0 20 -6 30 -13z"/>
<path d="M1555 1865 c-23 -23 -33 -64 -19 -78 4 -3 16 0 28 8 27 19 70 19 86
0 17 -20 27 -19 35 5 7 23 -18 75 -40 84 -33 12 -66 5 -90 -19z m79 -18 c15
-11 12 -12 -23 -12 -31 0 -37 2 -29 12 6 7 16 13 22 13 7 0 20 -6 30 -13z"/>
<path d="M1261 1663 c-6 -10 -11 -15 -11 -11 0 5 -19 -10 -42 -32 -30 -28 -49
-38 -63 -35 -16 4 -16 3 3 -7 20 -10 30 -7 80 29 31 22 66 43 77 47 20 8 20 8
0 16 -29 12 -33 12 -44 -7z"/>
<path d="M1511 1673 c-21 -4 -19 -7 25 -34 27 -16 61 -39 75 -50 23 -18 32
-20 55 -11 23 8 25 11 9 12 -11 1 -24 2 -28 1 -5 -1 -20 8 -34 19 -14 11 -22
20 -18 20 4 0 2 6 -5 14 -6 8 -19 12 -27 9 -11 -4 -14 -2 -9 5 5 8 1 10 -10 5
-12 -4 -15 -3 -10 5 4 7 6 11 4 11 -2 -1 -14 -4 -27 -6z"/>
<path d="M1403 1080 c-20 -16 -21 -30 -2 -30 9 0 33 40 27 45 -2 2 -13 -5 -25
-15z"/>
<path d="M1394 1023 c-11 -16 -24 -35 -29 -43 -8 -13 -7 -13 11 0 37 28 64 54
64 62 0 18 -27 6 -46 -19z"/>
<path d="M1395 960 c-36 -37 -37 -40 -17 -40 l23 0 -24 -32 c-13 -18 -28 -40
-32 -48 -10 -17 -5 -14 73 50 47 38 52 50 21 50 -20 0 -21 1 -5 25 33 50 13
48 -39 -5z"/>
<path d="M1408 849 c-63 -55 -73 -74 -32 -59 33 13 34 13 28 -4 -9 -25 10 -25
39 -1 32 28 36 50 7 42 -20 -5 -20 -5 1 24 36 51 16 50 -43 -2z"/>
<path d="M1050 695 c0 -17 5 -25 13 -22 6 2 12 12 12 22 0 10 -6 20 -12 23 -8
2 -13 -6 -13 -23z"/>
<path d="M1280 655 c0 -16 6 -25 15 -25 8 0 15 9 15 19 0 10 -7 21 -15 25 -11
4 -15 -1 -15 -19z"/>
<path d="M1554 665 c-4 -9 -2 -21 4 -27 15 -15 44 -1 40 19 -4 23 -36 29 -44
8z"/>
<path d="M1867 2311 c-3 -11 -16 -25 -29 -30 -23 -10 -23 -10 -2 -16 12 -4 26
-15 30 -25 8 -16 11 -15 37 11 20 20 24 29 13 29 -8 0 -22 12 -29 26 -13 26
-14 26 -20 5z"/>
<path d="M760 2198 c0 -24 24 -77 37 -82 22 -9 25 17 8 57 -14 35 -45 52 -45
25z"/>
<path d="M862 2165 c-16 -34 -15 -45 2 -45 17 0 49 47 41 60 -11 18 -32 10
-43 -15z"/>
<path d="M1913 2174 c-8 -21 13 -42 28 -27 13 13 5 43 -11 43 -6 0 -13 -7 -17
-16z"/>
<path d="M2040 2117 c0 -31 -36 -77 -61 -77 -10 0 -19 -4 -19 -10 0 -5 9 -10
19 -10 23 0 61 -45 61 -71 0 -30 17 -22 23 10 7 35 32 61 58 61 10 0 19 5 19
10 0 6 -9 10 -19 10 -23 0 -61 45 -61 71 0 10 -4 21 -10 24 -6 3 -10 -4 -10
-18z"/>
<path d="M687 2103 c-14 -14 -6 -22 30 -32 30 -9 41 -8 52 4 13 12 11 16 -13
25 -31 12 -60 13 -69 3z"/>
<path d="M695 2000 c-4 -7 -3 -16 3 -22 14 -14 45 -2 40 15 -6 16 -34 21 -43
7z"/>
<path d="M2027 1836 c-78 -29 -117 -90 -117 -181 0 -55 -1 -58 -55 -111 -30
-31 -53 -60 -50 -65 4 -5 45 -9 92 -9 82 0 86 -1 125 -34 99 -85 233 -63 289
46 87 171 -111 418 -284 354z m133 -61 c140 -73 163 -291 36 -333 -54 -17
-111 0 -156 47 -30 31 -39 35 -65 30 -16 -4 -41 -7 -54 -8 l-24 -1 20 23 c35
37 47 70 44 119 -6 115 94 177 199 123z"/>
<path d="M2053 1683 c-17 -6 -16 -38 1 -52 22 -18 48 -2 44 28 -3 25 -20 35
-45 24z"/>
<path d="M2143 1613 c-18 -7 -16 -38 2 -53 20 -17 47 5 43 34 -3 21 -22 29
-45 19z"/>
<path d="M1967 1356 c-7 -17 18 -40 33 -31 5 3 10 15 10 26 0 23 -35 27 -43 5z"/>
<path d="M2054 1306 c-12 -31 0 -51 31 -51 27 0 30 3 30 30 0 25 -4 30 -28 33
-17 2 -29 -2 -33 -12z"/>
<path d="M609 1157 c-50 -34 -79 -82 -79 -133 0 -37 3 -44 20 -44 15 0 20 7
20 25 0 46 27 93 69 119 27 17 39 31 35 41 -8 21 -25 19 -65 -8z"/>
<path d="M2023 1145 c-3 -9 -4 -17 -2 -18 2 -1 21 -11 42 -21 41 -21 56 -41
72 -96 13 -42 39 -47 43 -8 5 41 -26 97 -71 129 -44 32 -75 37 -84 14z"/>
<path d="M2037 1064 c-14 -15 -6 -34 14 -34 14 0 19 5 17 17 -3 18 -20 27 -31
17z"/>
<path d="M588 899 c-30 -17 -16 -69 18 -69 14 0 44 27 44 40 0 10 -29 40 -38
40 -4 0 -15 -5 -24 -11z"/>
<path d="M685 840 c-9 -15 14 -40 31 -33 22 8 18 43 -5 43 -11 0 -23 -5 -26
-10z"/>
<path d="M2074 835 c-4 -9 -2 -21 4 -27 15 -15 44 -1 40 19 -4 23 -36 29 -44
8z"/>
</g>
</svg>
